# xmcd
#
# Track frame offsets:
#	150
#	13605
#	30057
#	48297
#	64325
#	79786
#	91365
#	103626
#	116941
#	135652
#	150414
#	170623
#	187047
#	201178
#	218068
#	235355
#	249114
#	267458
#	286252
#	302153
#
# Disc length: 4239 seconds
#
# Revision: 0
# Processed by: cddbd v1.5.2PL0 Copyright (c) Steve Scherf et al.
# Submitted via: EasyCDDAExtractor 16.0.6.1
#
DISCID=12108d14
DTITLE=Συλλογικός δίσκος - Λαϊκά 2011 2
DYEAR=2011
DGENRE=Λαϊκή
TTITLE0=Μακρόπουλος Νίκος - Απόψε χωρίζω [Βασίλης Δήμας]
TTITLE1=Μαργαρίτης Γιώργος - Τό 'ξερα πως θα μού φύγεις [Βασίλης Τσιτσάνης]
TTITLE2=Γλυκερία - Απόψε σιωπηλοί [Βάσω Αλαγιάννη]
TTITLE3=Μητσιάς Μανώλης - Κάνε λιγάκι υπομονή [Βασίλης Τσιτσάνης]
TTITLE4=Λιδάκης Μανώλης-Γλυκερία - Έτσι σ' αγάπησα [Χ. Νικολόπουλος-Λ. Χαψιάδη
TTITLE4=ς]
TTITLE5=Μπάσης Δημήτρης - Τώρα κλαίς, γιατί κλαίς [Απόστολος Καλδάρας]
TTITLE6=Βιτάλη Ελένη - Μιά γυναίκα μπορεί [Χ.Νικολόπουλος-Β.Παπαδ)λος/Β.Ξύδης]
TTITLE7=Αδαμαντίδης Θέμης - Αγάπη μου επικίνδυνη [Α. Ρεπάνης-Δ. Γκούτης]
TTITLE8=Παπαδοπούλου Πίτσα - Τι σού έκανα, αγάπη [Π. Στεργίου-Γ. Μανιός]
TTITLE9=Καρράς Βασίλης - Μία μυτιά Ο2 [Ιορδ. Παύλου-Γ. Μαλλιάς]
TTITLE10=Πάολα - Ψεύτικα [Κ. Παπαδόπουλος-Η. Φιλίππου]
TTITLE11=Πανταζής Λευτέρης - Χαρταετός [Γ. Κριμιζάκης-Γ. Λεκάκης]
TTITLE12=Χαρακίδα Βάσω - Ο ουρανός κι αν γκρεμιστεί [Β. Σούκας-Σ. Τσιλιβερδής]
TTITLE13=Κωστόπουλος Χάρης - Πρώτο θέμα [Amza Tairov-Μ. Καντιώτη]
TTITLE14=Λεμπέσης Γιάννης-Λάλεζας Παναγιώτης - Διάλογος [Γιάννης Λεμπέσης]
TTITLE15=Κετιμέ Αρετή - Τα όμορφα τα γαλανά σου μάτια [Μάρκος Βαμβακάρης]
TTITLE16=Ζωϊδάκης Νίκος - Ένα τραγούδι να το λες [Σπύρος Πατάπης]
TTITLE17=Στρατηγού Ασπασία - Τσιφτετέλι του Ζαλόγγου [Νάγια Δρακιά]
TTITLE18=Μεζίνης Φάνης - Μήνυμα [Θ. Γεωργουλάς-Τ. Βουγιατζής]
TTITLE19=Δάρρα Φωτεινή - Η πιό μεγάλη ώρα [Άκης Πάνου]
EXTD=
EXTT0=
EXTT1=
EXTT2=
EXTT3=
EXTT4=
EXTT5=
EXTT6=
EXTT7=
EXTT8=
EXTT9=
EXTT10=
EXTT11=
EXTT12=
EXTT13=
EXTT14=
EXTT15=
EXTT16=
EXTT17=
EXTT18=
EXTT19=
PLAYORDER=
